<svg width="47" height="47" viewBox="0 0 47 47" fill="none" xmlns="http://www.w3.org/2000/svg">
<path d="M0 5C0 2.23858 2.23858 0 5 0H42C44.7614 0 47 2.23858 47 5V42C47 44.7614 44.7614 47 42 47H5C2.23858 47 0 44.7614 0 42V5Z" fill="#EBEBEB"/>
<path d="M29.0545 26.5469C28.9456 26.7957 28.9131 27.0716 28.9613 27.3392C29.0094 27.6067 29.1359 27.8536 29.3245 28.048L29.3736 28.0975C29.5258 28.2507 29.6465 28.4326 29.7288 28.6329C29.8112 28.8331 29.8536 29.0478 29.8536 29.2646C29.8536 29.4813 29.8112 29.696 29.7288 29.8963C29.6465 30.0965 29.5258 30.2784 29.3736 30.4316C29.2217 30.585 29.0412 30.7067 28.8425 30.7897C28.6439 30.8727 28.431 30.9154 28.2159 30.9154C28.0009 30.9154 27.7879 30.8727 27.5893 30.7897C27.3906 30.7067 27.2102 30.585 27.0582 30.4316L27.0091 30.3821C26.8163 30.192 26.5714 30.0645 26.3059 30.0159C26.0405 29.9674 25.7668 30.0002 25.52 30.11C25.278 30.2145 25.0716 30.3881 24.9263 30.6094C24.7809 30.8307 24.7029 31.09 24.7018 31.3554V31.4956C24.7018 31.9331 24.5294 32.3527 24.2225 32.662C23.9157 32.9714 23.4994 33.1452 23.0655 33.1452C22.6315 33.1452 22.2152 32.9714 21.9084 32.662C21.6015 32.3527 21.4291 31.9331 21.4291 31.4956V31.4214C21.4228 31.1484 21.3351 30.8836 21.1775 30.6615C21.0199 30.4394 20.7997 30.2702 20.5455 30.176C20.2987 30.0662 20.0249 30.0334 19.7595 30.0819C19.4941 30.1304 19.2492 30.258 19.0564 30.4481L19.0073 30.4976C18.8553 30.651 18.6748 30.7727 18.4762 30.8557C18.2775 30.9387 18.0646 30.9814 17.8495 30.9814C17.6345 30.9814 17.4216 30.9387 17.2229 30.8557C17.0243 30.7727 16.8438 30.651 16.6918 30.4976C16.5397 30.3444 16.419 30.1625 16.3366 29.9622C16.2543 29.762 16.2119 29.5473 16.2119 29.3306C16.2119 29.1138 16.2543 28.8991 16.3366 28.6989C16.419 28.4986 16.5397 28.3167 16.6918 28.1635L16.7409 28.114C16.9295 27.9196 17.0561 27.6727 17.1042 27.4052C17.1523 27.1376 17.1198 26.8617 17.0109 26.6129C16.9072 26.369 16.735 26.1609 16.5155 26.0144C16.296 25.8678 16.0387 25.7892 15.7755 25.7881H15.6364C15.2024 25.7881 14.7862 25.6143 14.4793 25.305C14.1724 24.9956 14 24.5761 14 24.1386C14 23.7011 14.1724 23.2815 14.4793 22.9721C14.7862 22.6628 15.2024 22.489 15.6364 22.489H15.71C15.9808 22.4826 16.2435 22.3943 16.4638 22.2354C16.6841 22.0765 16.8519 21.8545 16.9455 21.5982C17.0544 21.3495 17.0869 21.0735 17.0387 20.806C16.9906 20.5384 16.8641 20.2915 16.6755 20.0971L16.6264 20.0477C16.4742 19.8945 16.3535 19.7125 16.2712 19.5123C16.1888 19.312 16.1464 19.0974 16.1464 18.8806C16.1464 18.6638 16.1888 18.4492 16.2712 18.2489C16.3535 18.0487 16.4742 17.8667 16.6264 17.7135C16.7783 17.5602 16.9588 17.4385 17.1575 17.3555C17.3561 17.2725 17.569 17.2297 17.7841 17.2297C17.9991 17.2297 18.2121 17.2725 18.4107 17.3555C18.6094 17.4385 18.7898 17.5602 18.9418 17.7135L18.9909 17.763C19.1837 17.9532 19.4286 18.0807 19.6941 18.1292C19.9595 18.1777 20.2332 18.145 20.48 18.0352H20.5455C20.7874 17.9306 20.9938 17.757 21.1392 17.5358C21.2846 17.3145 21.3626 17.0552 21.3636 16.7898V16.6496C21.3636 16.2121 21.536 15.7925 21.8429 15.4831C22.1498 15.1738 22.566 15 23 15C23.434 15 23.8502 15.1738 24.1571 15.4831C24.464 15.7925 24.6364 16.2121 24.6364 16.6496V16.7238C24.6374 16.9892 24.7154 17.2485 24.8608 17.4698C25.0062 17.6911 25.2126 17.8647 25.4545 17.9692C25.7013 18.079 25.9751 18.1117 26.2405 18.0632C26.5059 18.0147 26.7508 17.8872 26.9436 17.697L26.9927 17.6475C27.1447 17.4942 27.3252 17.3725 27.5238 17.2895C27.7225 17.2065 27.9354 17.1637 28.1505 17.1637C28.3655 17.1637 28.5784 17.2065 28.7771 17.2895C28.9757 17.3725 29.1562 17.4942 29.3082 17.6475C29.4603 17.8007 29.581 17.9827 29.6634 18.1829C29.7457 18.3832 29.7881 18.5978 29.7881 18.8146C29.7881 19.0314 29.7457 19.246 29.6634 19.4463C29.581 19.6465 29.4603 19.8285 29.3082 19.9817L29.2591 20.0312C29.0705 20.2255 28.9439 20.4724 28.8958 20.74C28.8477 21.0075 28.8802 21.2835 28.9891 21.5323V21.5982C29.0928 21.8422 29.265 22.0502 29.4845 22.1968C29.704 22.3433 29.9613 22.422 30.2245 22.423H30.3636C30.7976 22.423 31.2138 22.5968 31.5207 22.9062C31.8276 23.2155 32 23.6351 32 24.0726C32 24.5101 31.8276 24.9296 31.5207 25.239C31.2138 25.5483 30.7976 25.7221 30.3636 25.7221H30.29C30.0267 25.7232 29.7695 25.8018 29.55 25.9484C29.3305 26.0949 29.1583 26.303 29.0545 26.5469Z" fill="#B1B1B1" stroke="#B1B1B1" stroke-width="1.3" stroke-linecap="round" stroke-linejoin="round"/>
<path d="M23.0004 26.5473C24.3561 26.5473 25.455 25.4395 25.455 24.073C25.455 22.7064 24.3561 21.5986 23.0004 21.5986C21.6448 21.5986 20.5459 22.7064 20.5459 24.073C20.5459 25.4395 21.6448 26.5473 23.0004 26.5473Z" fill="#EBEBEB"/>
</svg>
