<svg width="28" height="28" viewBox="0 0 28 28" fill="none" xmlns="http://www.w3.org/2000/svg">
<rect width="28" height="28" rx="5" fill="#EBEBEB"/>
<path d="M10.15 7.5843C10.9785 7.5843 11.65 8.25588 11.65 9.0843V10.0331C11.65 10.8615 10.9785 11.5331 10.15 11.5331H9.1C8.27157 11.5331 7.6 10.8615 7.6 10.0331V9.0843C7.6 8.25588 8.27157 7.5843 9.1 7.5843H10.15ZM13.275 7.5C13.275 6.67157 12.6034 6 11.775 6H7.5C6.67157 6 6 6.67157 6 7.5V11.5931C6 12.4215 6.67157 13.0931 7.5 13.0931H11.775C12.6034 13.0931 13.275 12.4215 13.275 11.5931V7.5Z" fill="#B1B1B1"/>
<path d="M9.84973 8.36426H9.4248C8.87252 8.36426 8.4248 8.81197 8.4248 9.36426V9.72856C8.4248 10.2808 8.87252 10.7286 9.4248 10.7286H9.84973C10.402 10.7286 10.8497 10.2808 10.8497 9.72856V9.36426C10.8497 8.81197 10.402 8.36426 9.84973 8.36426Z" fill="#B1B1B1"/>
<path d="M16.1747 14.5312H14.7246V15.9451H16.1747V14.5312Z" fill="#B1B1B1"/>
<path d="M15.4678 14.5312H15.4315C15.0411 14.5312 14.7246 14.8477 14.7246 15.2382C14.7246 15.6286 15.0411 15.9451 15.4315 15.9451H15.4678C15.8582 15.9451 16.1747 15.6286 16.1747 15.2382C16.1747 14.8477 15.8582 14.5312 15.4678 14.5312Z" fill="#B1B1B1"/>
<path d="M19.0751 14.5312H17.625V15.9451H19.0751V14.5312Z" fill="#B1B1B1"/>
<path d="M21.9755 14.5312H20.5254V15.9451H21.9755V14.5312Z" fill="#B1B1B1"/>
<path d="M17.6249 15.9448H16.1748V17.3586H17.6249V15.9448Z" fill="#B1B1B1"/>
<path d="M20.5253 15.9448H19.0752V17.3586H20.5253V15.9448Z" fill="#B1B1B1"/>
<path d="M16.1747 17.3589H14.7246V18.7727H16.1747V17.3589Z" fill="#B1B1B1"/>
<path d="M16.1747 17.3589H14.7246V18.7727H16.1747V17.3589Z" fill="#B1B1B1"/>
<path d="M19.0751 17.3589H17.625V18.7727H19.0751V17.3589Z" fill="#B1B1B1"/>
<path d="M21.9755 17.3589H20.5254V18.7727H21.9755V17.3589Z" fill="#B1B1B1"/>
<path d="M17.6249 18.7725H16.1748V20.1863H17.6249V18.7725Z" fill="#B1B1B1"/>
<path d="M20.5253 18.7725H19.0752V20.1863H20.5253V18.7725Z" fill="#B1B1B1"/>
<path d="M16.1747 20.186H14.7246V21.5999H16.1747V20.186Z" fill="#B1B1B1"/>
<path d="M16.1747 20.186H14.7246V21.5999H16.1747V20.186Z" fill="#B1B1B1"/>
<path d="M19.0751 20.186H17.625V21.5999H19.0751V20.186Z" fill="#B1B1B1"/>
<path d="M21.9755 20.186H20.5254V21.5999H21.9755V20.186Z" fill="#B1B1B1"/>
<path d="M10.15 16.0912C10.9785 16.0912 11.65 16.7628 11.65 17.5912V18.54C11.65 19.3685 10.9785 20.04 10.15 20.04H9.1C8.27157 20.04 7.6 19.3685 7.6 18.54V17.5912C7.6 16.7628 8.27157 16.0912 9.1 16.0912H10.15ZM13.275 16.0313C13.275 15.2028 12.6034 14.5312 11.775 14.5312H7.5C6.67157 14.5312 6 15.2028 6 16.0312V20.1243C6 20.9528 6.67157 21.6243 7.5 21.6243H11.775C12.6034 21.6243 13.275 20.9528 13.275 20.1243V16.0313Z" fill="#B1B1B1"/>
<path d="M9.84973 16.8955H9.4248C8.87252 16.8955 8.4248 17.3432 8.4248 17.8955V18.2598C8.4248 18.8121 8.87252 19.2598 9.4248 19.2598H9.84973C10.402 19.2598 10.8497 18.8121 10.8497 18.2598V17.8955C10.8497 17.3432 10.402 16.8955 9.84973 16.8955Z" fill="#B1B1B1"/>
<path d="M18.8745 7.5843C19.7029 7.5843 20.3745 8.25588 20.3745 9.0843V10.0331C20.3745 10.8615 19.7029 11.5331 18.8745 11.5331H17.8246C16.9962 11.5331 16.3246 10.8615 16.3246 10.0331V9.0843C16.3246 8.25588 16.9962 7.5843 17.8246 7.5843H18.8745ZM21.9996 7.5C21.9996 6.67157 21.328 6 20.4996 6H16.2246C15.3962 6 14.7246 6.67157 14.7246 7.5V11.5931C14.7246 12.4215 15.3962 13.0931 16.2246 13.0931H20.4996C21.328 13.0931 21.9996 12.4215 21.9996 11.5931V7.5Z" fill="#B1B1B1"/>
</svg>
