<svg width="28" height="28" viewBox="0 0 28 28" fill="none" xmlns="http://www.w3.org/2000/svg">
<rect width="28" height="28" rx="5" fill="#EBEBEB"/>
<path d="M18.1401 15.2804L16.9329 7.65313C16.9043 7.47243 16.8265 7.30919 16.7123 7.19045C16.5982 7.07171 16.4546 7.0046 16.3053 7.00023C16.156 6.99586 16.0099 7.05449 15.8914 7.16641C15.7728 7.27833 15.6888 7.43683 15.6532 7.61566L13.738 17.2544L12.3712 11.6092C12.3322 11.4481 12.2534 11.306 12.1457 11.2027C12.0381 11.0994 11.9069 11.0401 11.7707 11.0331C11.6344 11.0261 11.4997 11.0716 11.3854 11.1635C11.2711 11.2553 11.183 11.3888 11.1332 11.5453L9.9451 15.2804H6.62402V16.896H10.392C10.5237 16.896 10.6524 16.8471 10.7612 16.7556C10.8701 16.6641 10.954 16.5343 11.0021 16.3832L11.6592 14.3174L13.1724 20.5673C13.2128 20.734 13.2956 20.8801 13.4087 20.984C13.5218 21.0879 13.6591 21.1441 13.8002 21.1441C13.8057 21.1441 13.8112 21.144 13.8167 21.1438C13.9605 21.1394 14.0992 21.0768 14.2113 20.9656C14.3233 20.8543 14.4026 20.7008 14.4369 20.5285L16.2173 11.5682L16.9572 16.243C16.9863 16.4269 17.0664 16.5926 17.1837 16.7118C17.301 16.8309 17.4483 16.8961 17.6003 16.896H21.3683V15.2804H18.1401Z" fill="#B1B1B1"/>
<path d="M7.2979 16.0885C7.2979 16.5345 7.00735 16.8962 6.64895 16.8962C6.29054 16.8962 6 16.5345 6 16.0885C6 15.6424 6.29054 15.2808 6.64895 15.2808C7.00735 15.2808 7.2979 15.6424 7.2979 16.0885Z" fill="#B1B1B1"/>
<path d="M22 16.088C22 16.5341 21.7095 16.8957 21.3511 16.8957C20.9927 16.8957 20.7021 16.5341 20.7021 16.088C20.7021 15.6419 20.9927 15.2803 21.3511 15.2803C21.7095 15.2803 22 15.6419 22 16.088Z" fill="#B1B1B1"/>
</svg>
