<svg width="36" height="36" viewBox="0 0 36 36" fill="none" xmlns="http://www.w3.org/2000/svg">
<path fill-rule="evenodd" clip-rule="evenodd" d="M33.0079 27.9414C32.6262 28.5166 31.8374 28.6171 31.29 28.1965C30.7426 27.7758 30.6446 26.9935 31.02 26.4141C32.5895 23.9914 33.5 21.1048 33.5 18C33.5 14.8952 32.5895 12.0086 31.02 9.58586C30.6446 9.00647 30.7426 8.2242 31.29 7.80354C31.8374 7.38289 32.6262 7.48339 33.0079 8.05858C34.8986 10.9071 36 14.3249 36 18C36 21.6751 34.8986 25.0929 33.0079 27.9414ZM27.9414 2.99205C28.5166 3.37383 28.6171 4.16256 28.1965 4.70996C27.7758 5.25736 26.9935 5.35539 26.4141 4.98003C23.9914 3.41053 21.1048 2.5 18 2.5C14.8952 2.5 12.0086 3.41053 9.58586 4.98003C9.00647 5.35539 8.2242 5.25736 7.80354 4.70996C7.38289 4.16256 7.48339 3.37383 8.05858 2.99205C10.9071 1.10137 14.3249 0 18 0C21.6751 0 25.0929 1.10137 27.9414 2.99205ZM4.70996 7.80355C4.16256 7.38289 3.37383 7.48339 2.99205 8.05858C1.10137 10.9071 0 14.3249 0 18C0 21.6751 1.10137 25.0929 2.99205 27.9414C3.37383 28.5166 4.16256 28.6171 4.70996 28.1965C5.25736 27.7758 5.35539 26.9935 4.98003 26.4141C3.41053 23.9914 2.5 21.1048 2.5 18C2.5 14.8952 3.41053 12.0086 4.98003 9.58587C5.35539 9.00647 5.25735 8.2242 4.70996 7.80355ZM8.05858 33.0079C7.48339 32.6262 7.38289 31.8374 7.80355 31.29C8.2242 30.7426 9.00647 30.6446 9.58586 31.02C12.0086 32.5895 14.8952 33.5 18 33.5C21.1048 33.5 23.9914 32.5895 26.4141 31.02C26.9935 30.6446 27.7758 30.7426 28.1965 31.29C28.6171 31.8374 28.5166 32.6262 27.9414 33.0079C25.0929 34.8986 21.6751 36 18 36C14.3249 36 10.9071 34.8986 8.05858 33.0079Z" fill="#11D019"/>
</svg>
