<svg width="47" height="47" viewBox="0 0 47 47" fill="none" xmlns="http://www.w3.org/2000/svg">
<path d="M0 5C0 2.23858 2.23858 0 5 0H42C44.7614 0 47 2.23858 47 5V42C47 44.7614 44.7614 47 42 47H5C2.23858 47 0 44.7614 0 42V5Z" fill="#FFDBCE"/>
<g clip-path="url(#clip0)">
<path d="M30.0545 26.5469C29.9456 26.7957 29.9131 27.0716 29.9613 27.3392C30.0094 27.6067 30.1359 27.8536 30.3245 28.048L30.3736 28.0975C30.5258 28.2507 30.6465 28.4326 30.7288 28.6329C30.8112 28.8331 30.8536 29.0478 30.8536 29.2646C30.8536 29.4813 30.8112 29.696 30.7288 29.8963C30.6465 30.0965 30.5258 30.2784 30.3736 30.4316C30.2217 30.585 30.0412 30.7067 29.8425 30.7897C29.6439 30.8727 29.431 30.9154 29.2159 30.9154C29.0009 30.9154 28.7879 30.8727 28.5893 30.7897C28.3906 30.7067 28.2102 30.585 28.0582 30.4316L28.0091 30.3821C27.8163 30.192 27.5714 30.0645 27.3059 30.0159C27.0405 29.9674 26.7668 30.0002 26.52 30.11C26.278 30.2145 26.0716 30.3881 25.9263 30.6094C25.7809 30.8307 25.7029 31.09 25.7018 31.3554V31.4956C25.7018 31.9331 25.5294 32.3527 25.2225 32.662C24.9157 32.9714 24.4994 33.1452 24.0655 33.1452C23.6315 33.1452 23.2152 32.9714 22.9084 32.662C22.6015 32.3527 22.4291 31.9331 22.4291 31.4956V31.4214C22.4228 31.1484 22.3351 30.8836 22.1775 30.6615C22.0199 30.4394 21.7997 30.2702 21.5455 30.176C21.2987 30.0662 21.0249 30.0334 20.7595 30.0819C20.4941 30.1304 20.2492 30.258 20.0564 30.4481L20.0073 30.4976C19.8553 30.651 19.6748 30.7727 19.4762 30.8557C19.2775 30.9387 19.0646 30.9814 18.8495 30.9814C18.6345 30.9814 18.4216 30.9387 18.2229 30.8557C18.0243 30.7727 17.8438 30.651 17.6918 30.4976C17.5397 30.3444 17.419 30.1625 17.3366 29.9622C17.2543 29.762 17.2119 29.5473 17.2119 29.3306C17.2119 29.1138 17.2543 28.8991 17.3366 28.6989C17.419 28.4986 17.5397 28.3167 17.6918 28.1635L17.7409 28.114C17.9295 27.9196 18.0561 27.6727 18.1042 27.4052C18.1523 27.1376 18.1198 26.8617 18.0109 26.6129C17.9072 26.369 17.735 26.1609 17.5155 26.0144C17.296 25.8678 17.0387 25.7892 16.7755 25.7881H16.6364C16.2024 25.7881 15.7862 25.6143 15.4793 25.305C15.1724 24.9956 15 24.5761 15 24.1386C15 23.7011 15.1724 23.2815 15.4793 22.9721C15.7862 22.6628 16.2024 22.489 16.6364 22.489H16.71C16.9808 22.4826 17.2435 22.3943 17.4638 22.2354C17.6841 22.0765 17.8519 21.8545 17.9455 21.5982C18.0544 21.3495 18.0869 21.0735 18.0387 20.806C17.9906 20.5384 17.8641 20.2915 17.6755 20.0971L17.6264 20.0477C17.4742 19.8945 17.3535 19.7125 17.2712 19.5123C17.1888 19.312 17.1464 19.0974 17.1464 18.8806C17.1464 18.6638 17.1888 18.4492 17.2712 18.2489C17.3535 18.0487 17.4742 17.8667 17.6264 17.7135C17.7783 17.5602 17.9588 17.4385 18.1575 17.3555C18.3561 17.2725 18.569 17.2297 18.7841 17.2297C18.9991 17.2297 19.2121 17.2725 19.4107 17.3555C19.6094 17.4385 19.7898 17.5602 19.9418 17.7135L19.9909 17.763C20.1837 17.9532 20.4286 18.0807 20.6941 18.1292C20.9595 18.1777 21.2332 18.145 21.48 18.0352H21.5455C21.7874 17.9306 21.9938 17.757 22.1392 17.5358C22.2846 17.3145 22.3626 17.0552 22.3636 16.7898V16.6496C22.3636 16.2121 22.536 15.7925 22.8429 15.4831C23.1498 15.1738 23.566 15 24 15C24.434 15 24.8502 15.1738 25.1571 15.4831C25.464 15.7925 25.6364 16.2121 25.6364 16.6496V16.7238C25.6374 16.9892 25.7154 17.2485 25.8608 17.4698C26.0062 17.6911 26.2126 17.8647 26.4545 17.9692C26.7013 18.079 26.9751 18.1117 27.2405 18.0632C27.5059 18.0147 27.7508 17.8872 27.9436 17.697L27.9927 17.6475C28.1447 17.4942 28.3252 17.3725 28.5238 17.2895C28.7225 17.2065 28.9354 17.1637 29.1505 17.1637C29.3655 17.1637 29.5784 17.2065 29.7771 17.2895C29.9757 17.3725 30.1562 17.4942 30.3082 17.6475C30.4603 17.8007 30.581 17.9827 30.6634 18.1829C30.7457 18.3832 30.7881 18.5978 30.7881 18.8146C30.7881 19.0314 30.7457 19.246 30.6634 19.4463C30.581 19.6465 30.4603 19.8285 30.3082 19.9817L30.2591 20.0312C30.0705 20.2255 29.9439 20.4724 29.8958 20.74C29.8477 21.0075 29.8802 21.2835 29.9891 21.5323V21.5982C30.0928 21.8422 30.265 22.0502 30.4845 22.1968C30.704 22.3433 30.9613 22.422 31.2245 22.423H31.3636C31.7976 22.423 32.2138 22.5968 32.5207 22.9062C32.8276 23.2155 33 23.6351 33 24.0726C33 24.5101 32.8276 24.9296 32.5207 25.239C32.2138 25.5483 31.7976 25.7221 31.3636 25.7221H31.29C31.0267 25.7232 30.7695 25.8018 30.55 25.9484C30.3305 26.0949 30.1583 26.303 30.0545 26.5469Z" fill="#EF4F23" stroke="#EF4F23" stroke-width="1.3" stroke-linecap="round" stroke-linejoin="round"/>
<path d="M24.0004 26.5473C25.3561 26.5473 26.455 25.4395 26.455 24.073C26.455 22.7064 25.3561 21.5986 24.0004 21.5986C22.6448 21.5986 21.5459 22.7064 21.5459 24.073C21.5459 25.4395 22.6448 26.5473 24.0004 26.5473Z" fill="#FFDBCE"/>
</g>
<defs>
<clipPath id="clip0">
<rect width="24" height="24" fill="white" transform="translate(11 12)"/>
</clipPath>
</defs>
</svg>
