<svg width="28" height="28" viewBox="0 0 28 28" fill="none" xmlns="http://www.w3.org/2000/svg">
<rect width="28" height="28" rx="5" fill="#EBEBEB"/>
<path d="M12.4805 14.3301C12.4805 15.474 12.2207 16.3877 11.7012 17.0713C11.1816 17.7503 10.4844 18.0898 9.60938 18.0898C8.79818 18.0898 8.14876 17.8232 7.66113 17.29V20.7969H6V10.5566H7.53125L7.59961 11.3086C8.08724 10.7161 8.75033 10.4199 9.58887 10.4199C10.4912 10.4199 11.1976 10.7572 11.708 11.4316C12.223 12.1016 12.4805 13.0335 12.4805 14.2275V14.3301ZM10.8262 14.1865C10.8262 13.4482 10.6781 12.8626 10.3818 12.4297C10.0902 11.9967 9.6709 11.7803 9.12402 11.7803C8.44499 11.7803 7.95736 12.0605 7.66113 12.6211V15.9023C7.96191 16.4766 8.4541 16.7637 9.1377 16.7637C9.66634 16.7637 10.0788 16.5518 10.375 16.1279C10.6758 15.6995 10.8262 15.0524 10.8262 14.1865Z" fill="#B1B1B1"/>
<path d="M21.9551 17.9531H20.2324V13.5303H15.7822V17.9531H14.0527V8H15.7822V12.1426H20.2324V8H21.9551V17.9531Z" fill="#B1B1B1"/>
</svg>
