<svg width="31" height="30" viewBox="0 0 31 30" fill="none" xmlns="http://www.w3.org/2000/svg">
<rect width="30.1132" height="30" rx="5" fill="#FFEEE7"/>
<path d="M13.4805 15.3301C13.4805 16.474 13.2207 17.3877 12.7012 18.0713C12.1816 18.7503 11.4844 19.0898 10.6094 19.0898C9.79818 19.0898 9.14876 18.8232 8.66113 18.29V21.7969H7V11.5566H8.53125L8.59961 12.3086C9.08724 11.7161 9.75033 11.4199 10.5889 11.4199C11.4912 11.4199 12.1976 11.7572 12.708 12.4316C13.223 13.1016 13.4805 14.0335 13.4805 15.2275V15.3301ZM11.8262 15.1865C11.8262 14.4482 11.6781 13.8626 11.3818 13.4297C11.0902 12.9967 10.6709 12.7803 10.124 12.7803C9.44499 12.7803 8.95736 13.0605 8.66113 13.6211V16.9023C8.96191 17.4766 9.4541 17.7637 10.1377 17.7637C10.6663 17.7637 11.0788 17.5518 11.375 17.1279C11.6758 16.6995 11.8262 16.0524 11.8262 15.1865Z" fill="#EF4F23"/>
<path d="M22.9551 18.9531H21.2324V14.5303H16.7822V18.9531H15.0527V9H16.7822V13.1426H21.2324V9H22.9551V18.9531Z" fill="#EF4F23"/>
</svg>
