<svg width="28" height="28" viewBox="0 0 28 28" fill="none" xmlns="http://www.w3.org/2000/svg">
<rect width="28" height="28" rx="5" fill="#EBEBEB"/>
<path fill-rule="evenodd" clip-rule="evenodd" d="M8.87924 8.93837C8.54515 8.93837 8.27431 9.20921 8.27431 9.54331V19.2223C8.27431 19.5564 8.54515 19.8273 8.87924 19.8273H18.5583C18.8924 19.8273 19.1632 19.5564 19.1632 19.2223V9.54331C19.1632 9.20921 18.8924 8.93837 18.5583 8.93837H8.87924ZM6.71875 9.54331C6.71875 8.3501 7.68604 7.38281 8.87924 7.38281H18.5583C19.7515 7.38281 20.7188 8.3501 20.7188 9.54331V19.2223C20.7188 20.4155 19.7515 21.3828 18.5583 21.3828H8.87924C7.68604 21.3828 6.71875 20.4155 6.71875 19.2223V9.54331Z" fill="#B1B1B1"/>
<path fill-rule="evenodd" clip-rule="evenodd" d="M16.4848 6C16.9144 6 17.2626 6.34822 17.2626 6.77778V9.54321C17.2626 9.97276 16.9144 10.321 16.4848 10.321C16.0553 10.321 15.707 9.97276 15.707 9.54321V6.77778C15.707 6.34822 16.0553 6 16.4848 6Z" fill="#B1B1B1"/>
<path fill-rule="evenodd" clip-rule="evenodd" d="M10.9536 6C11.3831 6 11.7313 6.34822 11.7313 6.77778V9.54321C11.7313 9.97276 11.3831 10.321 10.9536 10.321C10.524 10.321 10.1758 9.97276 10.1758 9.54321V6.77778C10.1758 6.34822 10.524 6 10.9536 6Z" fill="#B1B1B1"/>
<path fill-rule="evenodd" clip-rule="evenodd" d="M6.71875 12.3085C6.71875 11.879 7.06697 11.5308 7.49653 11.5308H19.941C20.3705 11.5308 20.7188 11.879 20.7188 12.3085C20.7188 12.7381 20.3705 13.0863 19.941 13.0863H7.49653C7.06697 13.0863 6.71875 12.7381 6.71875 12.3085Z" fill="#B1B1B1"/>
</svg>
