<svg width="28" height="28" viewBox="0 0 28 28" fill="none" xmlns="http://www.w3.org/2000/svg">
<rect width="28" height="28" rx="5" fill="#EBEBEB"/>
<path d="M9.91071 10.4482C7.84797 11.662 6.39615 13.7539 6.06948 16.2037C5.99616 16.7536 6.45152 17.2071 7.00623 17.2071C7.14162 17.2071 7.27446 17.2071 7.39286 17.2071C7.51306 17.2071 7.64816 17.2071 7.7857 17.2071C8.33799 17.2071 8.77537 16.7549 8.88515 16.2136C9.17535 14.7829 10.0787 13.5655 11.3036 12.8306" fill="#B1B1B1"/>
<path d="M14.0003 9.31885C12.5896 9.31885 11.2503 9.68944 10.1074 10.3247L11.5003 12.7071C12.2503 12.3012 13.0896 12.0541 14.0181 12.0541C14.9288 12.0541 15.786 12.3012 16.536 12.7071L17.9288 10.3247C16.7503 9.68944 15.411 9.31885 14.0003 9.31885Z" fill="#B1B1B1"/>
<path d="M18.0891 10.4482L16.6963 12.8306C17.9211 13.5655 18.8245 14.7829 19.1147 16.2136C19.2245 16.7549 19.6619 17.2071 20.2141 17.2071H20.9936C21.5483 17.2071 22.0037 16.7536 21.9304 16.2037C21.6037 13.7539 20.1519 11.662 18.0891 10.4482Z" fill="#B1B1B1"/>
<path d="M14.7305 17.7633L14.6774 17.3961L13.9873 12.707L13.3238 17.3961L13.2707 17.7633C13.2707 17.8157 13.2441 17.8682 13.2441 17.9206C13.2441 18.1829 13.3768 18.419 13.5626 18.5501C13.6954 18.6288 13.8281 18.6813 13.9873 18.6813C14.1466 18.6813 14.2793 18.6288 14.412 18.5501C14.5978 18.419 14.7305 18.1829 14.7305 17.9206C14.757 17.8682 14.757 17.8157 14.7305 17.7633Z" fill="#B1B1B1"/>
</svg>
