<svg width="110" height="28" viewBox="0 0 110 28" fill="none" xmlns="http://www.w3.org/2000/svg">
<path d="M37.0204 16.2445C37.0204 16.9712 36.4219 17.5697 35.6952 17.5697H26.3761C25.9059 17.5697 25.4784 17.4415 25.0509 17.2277C24.6234 17.014 24.2815 16.672 23.9822 16.2873C23.683 15.9025 23.4265 15.4323 23.2555 14.8766C23.0845 14.3208 22.999 13.7651 22.999 13.1667V9.7468C22.999 9.14833 23.0845 8.54986 23.2555 8.03688C23.4265 7.48116 23.683 7.05367 23.9822 6.62619C24.2815 6.24146 24.6662 5.89948 25.0509 5.68574C25.4784 5.47199 25.9059 5.34375 26.3761 5.34375H35.6952C36.4219 5.34375 37.0204 5.94222 37.0204 6.66894C37.0204 7.39566 36.4219 7.99413 35.6952 7.99413H26.3761C25.9914 7.99413 25.6922 8.16512 25.4357 8.50711C25.1792 8.84909 25.0509 9.23383 25.0509 9.70405V13.1239C25.0509 13.5941 25.1792 14.0216 25.4357 14.3208C25.6922 14.6628 25.9914 14.8338 26.3761 14.8338H35.6952C36.4219 14.9193 37.0204 15.5178 37.0204 16.2445Z" fill="#606262"/>
<path d="M49.0318 15.945V16.5435C49.0318 17.0992 48.5616 17.5694 48.0059 17.5694H41.1662C40.6959 17.5694 40.2685 17.4412 39.841 17.2275C39.4135 17.0137 39.0715 16.6717 38.7723 16.287C38.473 15.9023 38.2165 15.432 38.0456 14.8763C37.8746 14.3206 37.7891 13.7649 37.7891 13.1664V6.41218C37.7891 5.85646 38.2593 5.38623 38.815 5.38623C39.3707 5.38623 39.841 5.85646 39.841 6.41218V13.2091C39.841 13.6794 39.9692 14.1068 40.2257 14.4061C40.4822 14.7481 40.7814 14.9191 41.1662 14.9191H48.0059C48.5188 14.9191 49.0318 15.3893 49.0318 15.945Z" fill="#606262"/>
<path d="M51.212 17.6122H51.0838C50.5708 17.6122 50.1006 17.1847 50.1006 16.629V6.36944C50.1006 5.85646 50.5281 5.38623 51.0838 5.38623H51.212C51.725 5.38623 52.1952 5.81371 52.1952 6.36944V16.6717C52.238 17.1847 51.8105 17.6122 51.212 17.6122Z" fill="#606262"/>
<path d="M54.2906 17.6122C53.7349 17.6122 53.2646 17.142 53.2646 16.5862V6.79693C53.2646 6.4122 53.3501 6.02747 53.5211 5.72823C53.6921 5.42899 53.9059 5.21525 54.1624 5.08701C54.4188 4.95876 54.6753 4.95876 54.9746 5.00151C55.2738 5.08701 55.4875 5.258 55.7013 5.55724L61.4723 14.1496C61.686 14.4488 62.1135 14.4488 62.3272 14.1496L68.0982 5.55724C68.312 5.258 68.5685 5.04426 68.825 5.00151C69.1242 4.91602 69.3807 4.95876 69.6372 5.08701C69.8937 5.21525 70.1074 5.42899 70.2784 5.72823C70.4494 6.02747 70.5349 6.36945 70.5349 6.79693V16.5435C70.5349 17.0992 70.0646 17.5694 69.5089 17.5694C68.9532 17.5694 68.483 17.0992 68.483 16.5435V9.66105C68.483 9.49006 68.2692 9.40456 68.1837 9.57556L62.9685 17.313C62.8402 17.5267 62.6692 17.6977 62.4982 17.7832C62.3272 17.8687 62.1135 17.9542 61.9425 17.9542C61.7715 17.9542 61.5578 17.9114 61.3868 17.7832C61.2158 17.6977 61.0448 17.5267 60.9166 17.313L55.7013 9.57556C55.6158 9.44731 55.3593 9.49006 55.3593 9.66105V16.5435C55.3593 17.142 54.8463 17.6122 54.2906 17.6122Z" fill="#606262"/>
<path d="M82.4183 16.9283L78.6137 9.61839C78.4 9.19091 77.716 9.19091 77.5023 9.61839L73.7404 16.8856C73.5267 17.2703 73.142 17.484 72.7145 17.484H72.5007C71.6458 17.484 71.0901 16.6291 71.4748 15.9024L77.032 5.81381C77.2458 5.47182 77.6305 5.21533 78.058 5.21533C78.4855 5.21533 78.8702 5.42907 79.0839 5.81381L84.5984 15.9024C84.9832 16.6291 84.4275 17.484 83.5725 17.484H83.4443C83.0595 17.5695 82.632 17.313 82.4183 16.9283Z" fill="#606060"/>
<path d="M83.4442 5.38623H93.4473C94.0885 5.38623 94.6015 5.89921 94.6015 6.54043V6.92516C94.6015 7.56638 94.0885 8.07936 93.4473 8.07936H90.2412C89.8992 8.07936 89.6 8.3786 89.6 8.72058V16.458C89.6 17.0992 89.087 17.6122 88.4458 17.6122C87.8045 17.6122 87.2916 17.0992 87.2916 16.458V8.72058C87.2916 8.3786 86.9923 8.07936 86.6503 8.07936H83.4442C82.803 8.07936 82.29 7.56638 82.29 6.92516V6.54043C82.29 5.89921 82.8458 5.38623 83.4442 5.38623Z" fill="#606262"/>
<path d="M108.11 14.8764H98.2352V12.7818H105.759C106.486 12.7818 107.127 12.1833 107.127 11.4138C107.127 10.6871 106.528 10.0459 105.759 10.0459H97.081C96.3971 10.0459 95.7986 10.5589 95.7559 11.2428V16.3299C95.7559 17.0138 96.3116 17.5268 96.9528 17.5268H98.2352H108.11C108.837 17.5268 109.478 16.9283 109.478 16.1589C109.435 15.5177 108.88 14.8764 108.11 14.8764Z" fill="#606262"/>
<path d="M108.111 5.34375H97.0388C96.3121 5.34375 95.6709 5.94222 95.6709 6.71169V8.07963H108.068C108.795 8.07963 109.436 7.48115 109.436 6.71169C109.436 5.94222 108.88 5.34375 108.111 5.34375Z" fill="#606262"/>
<path d="M14.7485 0.213867C13.5516 0.213867 12.5684 1.19707 12.5684 2.39402V25.5207C12.5684 26.7177 13.5516 27.7009 14.7485 27.7009C15.9455 27.7009 16.9287 26.7177 16.9287 25.5207V2.39402C16.9287 1.19707 15.9455 0.213867 14.7485 0.213867ZM16.2019 25.5207C16.2019 26.3329 15.5607 26.9742 14.7485 26.9742C13.9363 26.9742 13.2951 26.3329 13.2951 25.5207V2.39402C13.2951 1.58181 13.9363 0.940585 14.7485 0.940585C15.5607 0.940585 16.2019 1.58181 16.2019 2.39402V25.5207Z" fill="white"/>
<path d="M16.2018 2.39386V25.5206C16.2018 26.3328 15.5606 26.974 14.7484 26.974C13.9361 26.974 13.2949 26.3328 13.2949 25.5206V2.39386C13.2949 1.58165 13.9361 0.94043 14.7484 0.94043C15.5606 0.94043 16.2018 1.58165 16.2018 2.39386Z" fill="#FCB615"/>
<path d="M22.1008 15.3463C21.716 14.9616 21.1603 14.7051 20.5618 14.7051H2.18015C0.983206 14.7051 0 15.6883 0 16.8852C0 17.4837 0.256489 18.0394 0.641221 18.4242C1.02595 18.8089 1.58168 19.0654 2.18015 19.0654H20.5618C21.7588 19.0654 22.742 18.0822 22.742 16.8852C22.742 16.2868 22.5282 15.731 22.1008 15.3463ZM20.6046 18.3387H2.2229C1.41069 18.3387 0.769465 17.6974 0.769465 16.8852C0.769465 16.073 1.41069 15.4318 2.2229 15.4318H20.6046C21.4168 15.4318 22.058 16.073 22.058 16.8852C22.058 17.6974 21.4168 18.3387 20.6046 18.3387Z" fill="white"/>
<path d="M22.0581 16.8855C22.0581 17.6977 21.4169 18.3389 20.6046 18.3389H2.22297C1.41075 18.3389 0.769531 17.6977 0.769531 16.8855C0.769531 16.0733 1.41075 15.4321 2.22297 15.4321H20.6046C21.4169 15.3893 22.0581 16.0733 22.0581 16.8855Z" fill="#8FBB3E"/>
<path d="M16.3296 0.598426C16.1159 0.427434 15.9021 0.299189 15.6457 0.213693C15.3892 0.128197 15.1327 0.0854492 14.9189 0.0854492C14.3205 0.0854492 13.722 0.341937 13.2945 0.854915L0.555579 15.4748C-0.213887 16.3725 -0.128391 17.7404 0.769319 18.5526C0.983059 18.7236 1.1968 18.8519 1.45329 18.9374C1.70978 19.0229 1.96627 19.0656 2.18001 19.0656C2.77848 19.0656 3.37695 18.8091 3.80443 18.2961L16.5434 3.63354C17.3556 2.73583 17.2273 1.36789 16.3296 0.598426ZM2.18001 18.3389C1.83802 18.3389 1.49604 18.2106 1.23955 17.9969C0.940312 17.7404 0.769319 17.3984 0.726571 17.0137C0.683823 16.629 0.812067 16.2442 1.06856 15.945L13.8075 1.2824C14.1067 0.940411 14.4915 0.769418 14.9189 0.769418C15.2609 0.769418 15.6029 0.897663 15.8594 1.1114C16.4579 1.62438 16.5434 2.56484 15.9876 3.16331L3.29146 17.8687C3.03497 18.1679 2.60749 18.3389 2.18001 18.3389Z" fill="white"/>
<path d="M16.0307 3.20617L3.29174 17.8688C3.03525 18.168 2.60777 18.339 2.18029 18.339C1.8383 18.339 1.49632 18.2108 1.23983 17.997C0.940592 17.7405 0.769599 17.3985 0.726851 17.0138C0.684103 16.6291 0.812347 16.2443 1.06884 15.9451L13.8078 1.28251C14.107 0.940524 14.4917 0.769531 14.9192 0.769531C15.2612 0.769531 15.6032 0.897776 15.8597 1.11152C16.5009 1.66724 16.5436 2.56495 16.0307 3.20617Z" fill="#32A1DA"/>
<path d="M16.1157 0C14.9188 0 13.9355 0.983206 13.9355 2.18015V25.8198C13.9355 27.0168 14.9188 28 16.1157 28C17.3126 28 18.2959 27.0168 18.2959 25.8198V2.18015C18.2959 0.983206 17.3126 0 16.1157 0ZM17.6119 25.8198C17.6119 26.6321 16.9707 27.2733 16.1584 27.2733C15.3462 27.2733 14.705 26.6321 14.705 25.8198V2.18015C14.705 1.36794 15.3462 0.726718 16.1584 0.726718C16.9707 0.726718 17.6119 1.36794 17.6119 2.18015V25.8198Z" fill="white"/>
<path d="M17.6119 2.18V25.8197C17.6119 26.6319 16.9707 27.2731 16.1585 27.2731C15.3463 27.2731 14.7051 26.6319 14.7051 25.8197V2.18C14.7051 1.36778 15.3463 0.726562 16.1585 0.726562C16.928 0.726562 17.6119 1.36778 17.6119 2.18Z" fill="#EF4F23"/>
</svg>
