<svg width="360" height="156" viewBox="0 0 360 156" fill="none" xmlns="http://www.w3.org/2000/svg">
<rect width="360" height="156" rx="5" fill="#FFEEE7"/>
<g filter="url(#filter0_d)">
<rect x="50.4512" y="32.9668" width="141.597" height="51.0824" rx="3" fill="white"/>
</g>
<path d="M107.518 58.923C107.518 60.0669 107.258 60.9806 106.738 61.6642C106.219 62.3433 105.521 62.6828 104.646 62.6828C103.835 62.6828 103.186 62.4162 102.698 61.883V65.3898H101.037V55.1496H102.568L102.637 55.9015C103.124 55.3091 103.787 55.0128 104.626 55.0128C105.528 55.0128 106.235 55.3501 106.745 56.0246C107.26 56.6945 107.518 57.6265 107.518 58.8205V58.923ZM105.863 58.7794C105.863 58.0412 105.715 57.4556 105.419 57.0226C105.127 56.5897 104.708 56.3732 104.161 56.3732C103.482 56.3732 102.994 56.6535 102.698 57.214V60.4953C102.999 61.0695 103.491 61.3566 104.175 61.3566C104.703 61.3566 105.116 61.1447 105.412 60.7209C105.713 60.2925 105.863 59.6453 105.863 58.7794ZM116.992 62.5461H115.27V58.1232H110.819V62.5461H109.09V52.5929H110.819V56.7355H115.27V52.5929H116.992V62.5461ZM127.731 59.9826C127.731 59.5451 127.576 59.2078 127.267 58.9709C126.961 58.7339 126.408 58.4946 125.605 58.2531C124.803 58.0115 124.165 57.7427 123.691 57.4464C122.785 56.8768 122.331 56.1339 122.331 55.2179C122.331 54.4158 122.657 53.755 123.309 53.2355C123.965 52.716 124.815 52.4562 125.858 52.4562C126.551 52.4562 127.169 52.5838 127.711 52.839C128.253 53.0942 128.679 53.4588 128.989 53.9328C129.299 54.4022 129.454 54.924 129.454 55.4982H127.731C127.731 54.9787 127.567 54.5731 127.239 54.2814C126.916 53.9852 126.451 53.8371 125.845 53.8371C125.28 53.8371 124.84 53.9578 124.525 54.1994C124.215 54.4409 124.061 54.7781 124.061 55.2111C124.061 55.5757 124.229 55.881 124.566 56.1271C124.904 56.3686 125.46 56.6056 126.234 56.838C127.009 57.0659 127.631 57.328 128.101 57.6242C128.57 57.9158 128.914 58.2531 129.133 58.6359C129.352 59.0141 129.461 59.4585 129.461 59.9689C129.461 60.7983 129.142 61.4591 128.504 61.9513C127.87 62.439 127.009 62.6828 125.92 62.6828C125.2 62.6828 124.537 62.5506 123.931 62.2863C123.329 62.0174 122.86 61.6483 122.522 61.1789C122.19 60.7095 122.023 60.1626 122.023 59.5382H123.753C123.753 60.1033 123.94 60.5408 124.313 60.8507C124.687 61.1606 125.223 61.3156 125.92 61.3156C126.521 61.3156 126.973 61.1948 127.273 60.9533C127.579 60.7072 127.731 60.3836 127.731 59.9826ZM134.075 62.6828C133.022 62.6828 132.168 62.3524 131.512 61.6916C130.86 61.0262 130.534 60.1421 130.534 59.0392V58.8341C130.534 58.0959 130.675 57.4373 130.958 56.8586C131.245 56.2752 131.646 55.8218 132.161 55.4982C132.676 55.1746 133.25 55.0128 133.884 55.0128C134.891 55.0128 135.668 55.3341 136.215 55.9767C136.766 56.6193 137.042 57.5285 137.042 58.7043V59.3742H132.209C132.259 59.9849 132.462 60.4679 132.817 60.8234C133.177 61.1789 133.629 61.3566 134.171 61.3566C134.932 61.3566 135.552 61.049 136.03 60.4337L136.926 61.2882C136.63 61.7303 136.233 62.0744 135.736 62.3205C135.244 62.562 134.69 62.6828 134.075 62.6828ZM133.877 56.3459C133.421 56.3459 133.052 56.5054 132.77 56.8244C132.492 57.1434 132.314 57.5877 132.236 58.1574H135.401V58.0343C135.365 57.4783 135.217 57.0591 134.957 56.7765C134.697 56.4894 134.337 56.3459 133.877 56.3459ZM139.879 55.1496L139.927 56.0041C140.474 55.3433 141.191 55.0128 142.08 55.0128C143.62 55.0128 144.404 55.8947 144.432 57.6584V62.5461H142.771V57.7541C142.771 57.2847 142.668 56.9383 142.463 56.715C142.262 56.4871 141.932 56.3732 141.472 56.3732C140.802 56.3732 140.303 56.6763 139.975 57.2824V62.5461H138.313V55.1496H139.879ZM150.276 60.5363C150.276 60.2401 150.153 60.0145 149.907 59.8595C149.666 59.7046 149.262 59.5679 148.697 59.4494C148.132 59.3309 147.66 59.1805 147.282 58.9982C146.453 58.5972 146.038 58.0161 146.038 57.255C146.038 56.617 146.307 56.0838 146.845 55.6554C147.382 55.227 148.066 55.0128 148.896 55.0128C149.78 55.0128 150.493 55.2316 151.035 55.6691C151.582 56.1066 151.855 56.674 151.855 57.3712H150.194C150.194 57.0522 150.076 56.7879 149.839 56.5783C149.602 56.3641 149.287 56.257 148.896 56.257C148.531 56.257 148.232 56.3413 148 56.5099C147.772 56.6785 147.658 56.9041 147.658 57.1867C147.658 57.4419 147.765 57.6401 147.979 57.7814C148.194 57.9227 148.627 58.0662 149.278 58.2121C149.93 58.3533 150.44 58.5242 150.81 58.7248C151.183 58.9207 151.459 59.1577 151.637 59.4357C151.819 59.7137 151.91 60.0509 151.91 60.4474C151.91 61.1128 151.634 61.6528 151.083 62.0675C150.532 62.4777 149.809 62.6828 148.916 62.6828C148.31 62.6828 147.77 62.5734 147.296 62.3546C146.822 62.1359 146.453 61.8351 146.188 61.4523C145.924 61.0695 145.792 60.6571 145.792 60.215H147.405C147.428 60.6069 147.576 60.91 147.85 61.1242C148.123 61.3338 148.485 61.4386 148.937 61.4386C149.374 61.4386 149.707 61.3566 149.935 61.1925C150.162 61.0239 150.276 60.8052 150.276 60.5363ZM153.052 58.7794C153.052 58.0548 153.195 57.4031 153.482 56.8244C153.77 56.241 154.173 55.7944 154.692 55.4845C155.212 55.1701 155.809 55.0128 156.483 55.0128C157.481 55.0128 158.29 55.3341 158.91 55.9767C159.535 56.6193 159.872 57.4715 159.922 58.5334L159.929 58.923C159.929 59.6522 159.787 60.3039 159.505 60.8781C159.227 61.4523 158.826 61.8966 158.302 62.2111C157.782 62.5255 157.181 62.6828 156.497 62.6828C155.453 62.6828 154.617 62.3364 153.988 61.6437C153.364 60.9464 153.052 60.019 153.052 58.8615V58.7794ZM154.713 58.923C154.713 59.6841 154.87 60.2811 155.185 60.714C155.499 61.1424 155.937 61.3566 156.497 61.3566C157.058 61.3566 157.493 61.1378 157.803 60.7003C158.117 60.2628 158.274 59.6225 158.274 58.7794C158.274 58.0321 158.113 57.4396 157.789 57.0021C157.47 56.5646 157.035 56.3459 156.483 56.3459C155.941 56.3459 155.51 56.5623 155.191 56.9953C154.872 57.4237 154.713 58.0662 154.713 58.923ZM165.206 56.6671C164.987 56.6307 164.762 56.6125 164.529 56.6125C163.768 56.6125 163.256 56.9041 162.991 57.4875V62.5461H161.33V55.1496H162.916L162.957 55.9767C163.358 55.3341 163.914 55.0128 164.625 55.0128C164.862 55.0128 165.058 55.0447 165.213 55.1086L165.206 56.6671ZM174.134 62.5461H172.479V54.5548L170.039 55.3888V53.9875L173.922 52.5587H174.134V62.5461Z" fill="#3A3A3A"/>
<rect x="62.5498" y="45.0653" width="26.9869" height="26.8855" rx="5" fill="#FBD3C8" fill-opacity="0.5"/>
<path d="M74.6309 58.8037C74.6309 59.8288 74.3981 60.6477 73.9325 61.2603C73.4669 61.8688 72.8421 62.1731 72.0579 62.1731C71.3309 62.1731 70.7489 61.9342 70.3119 61.4563V64.5991H68.8232V55.422H70.1955L70.2568 56.0959C70.6938 55.5649 71.288 55.2995 72.0395 55.2995C72.8482 55.2995 73.4812 55.6017 73.9387 56.2061C74.4002 56.8065 74.6309 57.6417 74.6309 58.7118V58.8037ZM73.1484 58.675C73.1484 58.0134 73.0156 57.4886 72.7502 57.1006C72.4888 56.7126 72.113 56.5186 71.6229 56.5186C71.0144 56.5186 70.5774 56.7698 70.3119 57.2721V60.2127C70.5815 60.7273 71.0226 60.9846 71.6352 60.9846C72.109 60.9846 72.4786 60.7947 72.744 60.4149C73.0136 60.031 73.1484 59.451 73.1484 58.675Z" fill="#EF4F23"/>
<path d="M83.1219 62.0506H81.5781V58.0869H77.5899V62.0506H76.04V53.1308H77.5899V56.8433H81.5781V53.1308H83.1219V62.0506Z" fill="#EF4F23"/>
<g filter="url(#filter1_d)">
<rect x="167.951" y="71.9512" width="141.597" height="51.0824" rx="3" fill="white"/>
</g>
<path d="M225.018 97.9075C225.018 99.0514 224.758 99.9651 224.238 100.649C223.719 101.328 223.021 101.667 222.146 101.667C221.335 101.667 220.686 101.401 220.198 100.867V104.374H218.537V94.1341H220.068L220.137 94.886C220.624 94.2936 221.287 93.9974 222.126 93.9974C223.028 93.9974 223.735 94.3346 224.245 95.0091C224.76 95.679 225.018 96.611 225.018 97.805V97.9075ZM223.363 97.764C223.363 97.0257 223.215 96.4401 222.919 96.0071C222.627 95.5742 222.208 95.3577 221.661 95.3577C220.982 95.3577 220.494 95.638 220.198 96.1985V99.4798C220.499 100.054 220.991 100.341 221.675 100.341C222.203 100.341 222.616 100.129 222.912 99.7054C223.213 99.277 223.363 98.6299 223.363 97.764ZM234.492 101.531H232.77V97.1077H228.319V101.531H226.59V91.5775H228.319V95.72H232.77V91.5775H234.492V101.531ZM245.231 98.9671C245.231 98.5296 245.076 98.1924 244.767 97.9554C244.461 97.7184 243.908 97.4791 243.105 97.2376C242.303 96.9961 241.665 96.7272 241.191 96.431C240.285 95.8613 239.831 95.1185 239.831 94.2025C239.831 93.4004 240.157 92.7396 240.809 92.22C241.465 91.7005 242.315 91.4407 243.358 91.4407C244.051 91.4407 244.669 91.5683 245.211 91.8235C245.753 92.0788 246.179 92.4433 246.489 92.9173C246.799 93.3867 246.954 93.9085 246.954 94.4827H245.231C245.231 93.9632 245.067 93.5576 244.739 93.2659C244.416 92.9697 243.951 92.8216 243.345 92.8216C242.78 92.8216 242.34 92.9424 242.025 93.1839C241.715 93.4254 241.561 93.7627 241.561 94.1956C241.561 94.5602 241.729 94.8655 242.066 95.1116C242.404 95.3532 242.96 95.5901 243.734 95.8226C244.509 96.0504 245.131 96.3125 245.601 96.6087C246.07 96.9004 246.414 97.2376 246.633 97.6204C246.852 97.9987 246.961 98.443 246.961 98.9534C246.961 99.7829 246.642 100.444 246.004 100.936C245.37 101.423 244.509 101.667 243.42 101.667C242.7 101.667 242.037 101.535 241.431 101.271C240.829 101.002 240.36 100.633 240.022 100.163C239.69 99.694 239.523 99.1471 239.523 98.5228H241.253C241.253 99.0879 241.44 99.5254 241.813 99.8353C242.187 100.145 242.723 100.3 243.42 100.3C244.021 100.3 244.473 100.179 244.773 99.9378C245.079 99.6917 245.231 99.3681 245.231 98.9671ZM251.575 101.667C250.522 101.667 249.668 101.337 249.012 100.676C248.36 100.011 248.034 99.1266 248.034 98.0237V97.8187C248.034 97.0804 248.175 96.4219 248.458 95.8431C248.745 95.2597 249.146 94.8063 249.661 94.4827C250.176 94.1592 250.75 93.9974 251.384 93.9974C252.391 93.9974 253.168 94.3187 253.715 94.9612C254.266 95.6038 254.542 96.513 254.542 97.6888V98.3587H249.709C249.759 98.9694 249.962 99.4525 250.317 99.8079C250.677 100.163 251.129 100.341 251.671 100.341C252.432 100.341 253.052 100.034 253.53 99.4183L254.426 100.273C254.13 100.715 253.733 101.059 253.236 101.305C252.744 101.547 252.19 101.667 251.575 101.667ZM251.377 95.3304C250.921 95.3304 250.552 95.4899 250.27 95.8089C249.992 96.1279 249.814 96.5722 249.736 97.1419H252.901V97.0189C252.865 96.4629 252.717 96.0436 252.457 95.761C252.197 95.4739 251.837 95.3304 251.377 95.3304ZM257.379 94.1341L257.427 94.9886C257.974 94.3278 258.691 93.9974 259.58 93.9974C261.12 93.9974 261.904 94.8792 261.932 96.6429V101.531H260.271V96.7386C260.271 96.2692 260.168 95.9228 259.963 95.6995C259.762 95.4717 259.432 95.3577 258.972 95.3577C258.302 95.3577 257.803 95.6608 257.475 96.2669V101.531H255.813V94.1341H257.379ZM267.776 99.5208C267.776 99.2246 267.653 98.999 267.407 98.8441C267.166 98.6891 266.762 98.5524 266.197 98.4339C265.632 98.3154 265.16 98.165 264.782 97.9827C263.953 97.5817 263.538 97.0006 263.538 96.2396C263.538 95.6015 263.807 95.0683 264.345 94.64C264.882 94.2116 265.566 93.9974 266.396 93.9974C267.28 93.9974 267.993 94.2161 268.535 94.6536C269.082 95.0911 269.355 95.6585 269.355 96.3558H267.694C267.694 96.0368 267.576 95.7724 267.339 95.5628C267.102 95.3486 266.787 95.2415 266.396 95.2415C266.031 95.2415 265.732 95.3258 265.5 95.4944C265.272 95.6631 265.158 95.8887 265.158 96.1712C265.158 96.4264 265.265 96.6247 265.479 96.7659C265.694 96.9072 266.127 97.0508 266.778 97.1966C267.43 97.3379 267.94 97.5088 268.31 97.7093C268.683 97.9053 268.959 98.1422 269.137 98.4202C269.319 98.6982 269.41 99.0355 269.41 99.4319C269.41 100.097 269.134 100.637 268.583 101.052C268.032 101.462 267.309 101.667 266.416 101.667C265.81 101.667 265.27 101.558 264.796 101.339C264.322 101.12 263.953 100.82 263.688 100.437C263.424 100.054 263.292 99.6416 263.292 99.1995H264.905C264.928 99.5915 265.076 99.8945 265.35 100.109C265.623 100.318 265.985 100.423 266.437 100.423C266.874 100.423 267.207 100.341 267.435 100.177C267.662 100.008 267.776 99.7897 267.776 99.5208ZM270.552 97.764C270.552 97.0394 270.695 96.3877 270.982 95.8089C271.27 95.2256 271.673 94.779 272.192 94.4691C272.712 94.1546 273.309 93.9974 273.983 93.9974C274.981 93.9974 275.79 94.3187 276.41 94.9612C277.035 95.6038 277.372 96.456 277.422 97.5179L277.429 97.9075C277.429 98.6367 277.287 99.2884 277.005 99.8626C276.727 100.437 276.326 100.881 275.802 101.196C275.282 101.51 274.681 101.667 273.997 101.667C272.953 101.667 272.117 101.321 271.488 100.628C270.864 99.931 270.552 99.0036 270.552 97.846V97.764ZM272.213 97.9075C272.213 98.6686 272.37 99.2656 272.685 99.6985C272.999 100.127 273.437 100.341 273.997 100.341C274.558 100.341 274.993 100.122 275.303 99.6849C275.617 99.2474 275.774 98.6071 275.774 97.764C275.774 97.0166 275.613 96.4241 275.289 95.9866C274.97 95.5491 274.535 95.3304 273.983 95.3304C273.441 95.3304 273.01 95.5469 272.691 95.9798C272.372 96.4082 272.213 97.0508 272.213 97.9075ZM282.706 95.6517C282.487 95.6152 282.262 95.597 282.029 95.597C281.268 95.597 280.756 95.8887 280.491 96.472V101.531H278.83V94.1341H280.416L280.457 94.9612C280.858 94.3187 281.414 93.9974 282.125 93.9974C282.362 93.9974 282.558 94.0293 282.713 94.0931L282.706 95.6517ZM293.828 101.531H287.136V100.389L290.451 96.7728C290.93 96.2396 291.269 95.7952 291.47 95.4398C291.675 95.0797 291.777 94.7197 291.777 94.3597C291.777 93.8857 291.643 93.5029 291.374 93.2112C291.11 92.9196 290.752 92.7737 290.301 92.7737C289.763 92.7737 289.346 92.9378 289.05 93.2659C288.754 93.5941 288.605 94.0429 288.605 94.6126H286.944C286.944 94.0065 287.081 93.4619 287.354 92.9788C287.632 92.4912 288.027 92.1129 288.537 91.8441C289.052 91.5752 289.645 91.4407 290.314 91.4407C291.281 91.4407 292.042 91.6845 292.598 92.1722C293.158 92.6553 293.438 93.3252 293.438 94.1819C293.438 94.6787 293.297 95.2005 293.015 95.7474C292.737 96.2897 292.279 96.9072 291.641 97.5999L289.207 100.204H293.828V101.531Z" fill="#3A3A3A"/>
<rect x="180.05" y="84.0495" width="26.9869" height="26.8855" rx="5" fill="#CDEDFE"/>
<path d="M192.13 97.7882C192.13 98.8134 191.897 99.6322 191.432 100.245C190.966 100.853 190.341 101.158 189.557 101.158C188.83 101.158 188.248 100.919 187.811 100.441V103.584H186.322V94.4065H187.695L187.756 95.0804C188.193 94.5495 188.787 94.284 189.539 94.284C190.347 94.284 190.98 94.5862 191.438 95.1907C191.899 95.7911 192.13 96.6263 192.13 97.6963V97.7882ZM190.647 97.6596C190.647 96.9979 190.515 96.4731 190.249 96.0851C189.988 95.6971 189.612 95.5031 189.122 95.5031C188.513 95.5031 188.076 95.7543 187.811 96.2567V99.1973C188.081 99.7119 188.522 99.9692 189.134 99.9692C189.608 99.9692 189.978 99.7793 190.243 99.3994C190.513 99.0155 190.647 98.4356 190.647 97.6596Z" fill="#018CD5"/>
<path d="M200.621 101.035H199.077V97.0715H195.089V101.035H193.539V92.1153H195.089V95.8278H199.077V92.1153H200.621V101.035Z" fill="#018CD5"/>
<defs>
<filter id="filter0_d" x="28.4512" y="12.9668" width="171.597" height="81.0824" filterUnits="userSpaceOnUse" color-interpolation-filters="sRGB">
<feFlood flood-opacity="0" result="BackgroundImageFix"/>
<feColorMatrix in="SourceAlpha" type="matrix" values="0 0 0 0 0 0 0 0 0 0 0 0 0 0 0 0 0 0 127 0"/>
<feMorphology radius="3" operator="dilate" in="SourceAlpha" result="effect1_dropShadow"/>
<feOffset dx="-7" dy="-5"/>
<feGaussianBlur stdDeviation="6"/>
<feColorMatrix type="matrix" values="0 0 0 0 0 0 0 0 0 0 0 0 0 0 0 0 0 0 0.05 0"/>
<feBlend mode="normal" in2="BackgroundImageFix" result="effect1_dropShadow"/>
<feBlend mode="normal" in="SourceGraphic" in2="effect1_dropShadow" result="shape"/>
</filter>
<filter id="filter1_d" x="145.951" y="51.9512" width="171.597" height="81.0824" filterUnits="userSpaceOnUse" color-interpolation-filters="sRGB">
<feFlood flood-opacity="0" result="BackgroundImageFix"/>
<feColorMatrix in="SourceAlpha" type="matrix" values="0 0 0 0 0 0 0 0 0 0 0 0 0 0 0 0 0 0 127 0"/>
<feMorphology radius="3" operator="dilate" in="SourceAlpha" result="effect1_dropShadow"/>
<feOffset dx="-7" dy="-5"/>
<feGaussianBlur stdDeviation="6"/>
<feColorMatrix type="matrix" values="0 0 0 0 0 0 0 0 0 0 0 0 0 0 0 0 0 0 0.05 0"/>
<feBlend mode="normal" in2="BackgroundImageFix" result="effect1_dropShadow"/>
<feBlend mode="normal" in="SourceGraphic" in2="effect1_dropShadow" result="shape"/>
</filter>
</defs>
</svg>
