<svg width="290" height="122" viewBox="0 0 290 122" fill="none" xmlns="http://www.w3.org/2000/svg">
<g filter="url(#filter0_d)">
<rect x="22.4512" y="20.9668" width="141.597" height="51.0824" rx="3" fill="white"/>
</g>
<path d="M79.5176 46.923C79.5176 48.0669 79.2578 48.9806 78.7383 49.6642C78.2188 50.3433 77.5215 50.6828 76.6465 50.6828C75.8353 50.6828 75.1859 50.4162 74.6982 49.883V53.3898H73.0371V43.1496H74.5684L74.6367 43.9015C75.1243 43.3091 75.7874 43.0128 76.626 43.0128C77.5283 43.0128 78.2347 43.3501 78.7451 44.0246C79.2601 44.6945 79.5176 45.6265 79.5176 46.8205V46.923ZM77.8633 46.7794C77.8633 46.0412 77.7152 45.4556 77.4189 45.0226C77.1273 44.5897 76.708 44.3732 76.1611 44.3732C75.4821 44.3732 74.9945 44.6535 74.6982 45.214V48.4953C74.999 49.0695 75.4912 49.3566 76.1748 49.3566C76.7035 49.3566 77.1159 49.1447 77.4121 48.7209C77.7129 48.2925 77.8633 47.6453 77.8633 46.7794ZM88.9922 50.5461H87.2695V46.1232H82.8193V50.5461H81.0898V40.5929H82.8193V44.7355H87.2695V40.5929H88.9922V50.5461ZM99.7314 47.9826C99.7314 47.5451 99.5765 47.2078 99.2666 46.9709C98.9613 46.7339 98.4076 46.4946 97.6055 46.2531C96.8034 46.0115 96.1654 45.7427 95.6914 45.4464C94.7845 44.8768 94.3311 44.1339 94.3311 43.2179C94.3311 42.4158 94.6569 41.755 95.3086 41.2355C95.9648 40.716 96.8148 40.4562 97.8584 40.4562C98.5511 40.4562 99.1686 40.5838 99.7109 40.839C100.253 41.0942 100.679 41.4588 100.989 41.9328C101.299 42.4022 101.454 42.924 101.454 43.4982H99.7314C99.7314 42.9787 99.5674 42.5731 99.2393 42.2814C98.9157 41.9852 98.4508 41.8371 97.8447 41.8371C97.2796 41.8371 96.8398 41.9578 96.5254 42.1994C96.2155 42.4409 96.0605 42.7781 96.0605 43.2111C96.0605 43.5757 96.2292 43.881 96.5664 44.1271C96.9036 44.3686 97.4596 44.6056 98.2344 44.838C99.0091 45.0659 99.6312 45.328 100.101 45.6242C100.57 45.9158 100.914 46.2531 101.133 46.6359C101.352 47.0141 101.461 47.4585 101.461 47.9689C101.461 48.7983 101.142 49.4591 100.504 49.9513C99.8704 50.439 99.0091 50.6828 97.9199 50.6828C97.1999 50.6828 96.5368 50.5506 95.9307 50.2863C95.3291 50.0174 94.8597 49.6483 94.5225 49.1789C94.1898 48.7095 94.0234 48.1626 94.0234 47.5382H95.7529C95.7529 48.1033 95.9398 48.5408 96.3135 48.8507C96.6872 49.1606 97.2227 49.3156 97.9199 49.3156C98.5215 49.3156 98.9727 49.1948 99.2734 48.9533C99.5788 48.7072 99.7314 48.3836 99.7314 47.9826ZM106.075 50.6828C105.022 50.6828 104.168 50.3524 103.512 49.6916C102.86 49.0262 102.534 48.1421 102.534 47.0392V46.8341C102.534 46.0959 102.675 45.4373 102.958 44.8586C103.245 44.2752 103.646 43.8218 104.161 43.4982C104.676 43.1746 105.25 43.0128 105.884 43.0128C106.891 43.0128 107.668 43.3341 108.215 43.9767C108.766 44.6193 109.042 45.5285 109.042 46.7043V47.3742H104.209C104.259 47.9849 104.462 48.4679 104.817 48.8234C105.177 49.1789 105.629 49.3566 106.171 49.3566C106.932 49.3566 107.552 49.049 108.03 48.4337L108.926 49.2882C108.63 49.7303 108.233 50.0744 107.736 50.3205C107.244 50.562 106.69 50.6828 106.075 50.6828ZM105.877 44.3459C105.421 44.3459 105.052 44.5054 104.77 44.8244C104.492 45.1434 104.314 45.5877 104.236 46.1574H107.401V46.0343C107.365 45.4783 107.217 45.0591 106.957 44.7765C106.697 44.4894 106.337 44.3459 105.877 44.3459ZM111.879 43.1496L111.927 44.0041C112.474 43.3433 113.191 43.0128 114.08 43.0128C115.62 43.0128 116.404 43.8947 116.432 45.6584V50.5461H114.771V45.7541C114.771 45.2847 114.668 44.9383 114.463 44.715C114.262 44.4871 113.932 44.3732 113.472 44.3732C112.802 44.3732 112.303 44.6763 111.975 45.2824V50.5461H110.313V43.1496H111.879ZM122.276 48.5363C122.276 48.2401 122.153 48.0145 121.907 47.8595C121.666 47.7046 121.262 47.5679 120.697 47.4494C120.132 47.3309 119.66 47.1805 119.282 46.9982C118.453 46.5972 118.038 46.0161 118.038 45.255C118.038 44.617 118.307 44.0838 118.845 43.6554C119.382 43.227 120.066 43.0128 120.896 43.0128C121.78 43.0128 122.493 43.2316 123.035 43.6691C123.582 44.1066 123.855 44.674 123.855 45.3712H122.194C122.194 45.0522 122.076 44.7879 121.839 44.5783C121.602 44.3641 121.287 44.257 120.896 44.257C120.531 44.257 120.232 44.3413 120 44.5099C119.772 44.6785 119.658 44.9041 119.658 45.1867C119.658 45.4419 119.765 45.6401 119.979 45.7814C120.194 45.9227 120.627 46.0662 121.278 46.2121C121.93 46.3533 122.44 46.5242 122.81 46.7248C123.183 46.9207 123.459 47.1577 123.637 47.4357C123.819 47.7137 123.91 48.0509 123.91 48.4474C123.91 49.1128 123.634 49.6528 123.083 50.0675C122.532 50.4777 121.809 50.6828 120.916 50.6828C120.31 50.6828 119.77 50.5734 119.296 50.3546C118.822 50.1359 118.453 49.8351 118.188 49.4523C117.924 49.0695 117.792 48.6571 117.792 48.215H119.405C119.428 48.6069 119.576 48.91 119.85 49.1242C120.123 49.3338 120.485 49.4386 120.937 49.4386C121.374 49.4386 121.707 49.3566 121.935 49.1925C122.162 49.0239 122.276 48.8052 122.276 48.5363ZM125.052 46.7794C125.052 46.0548 125.195 45.4031 125.482 44.8244C125.77 44.241 126.173 43.7944 126.692 43.4845C127.212 43.1701 127.809 43.0128 128.483 43.0128C129.481 43.0128 130.29 43.3341 130.91 43.9767C131.535 44.6193 131.872 45.4715 131.922 46.5334L131.929 46.923C131.929 47.6522 131.787 48.3039 131.505 48.8781C131.227 49.4523 130.826 49.8966 130.302 50.2111C129.782 50.5255 129.181 50.6828 128.497 50.6828C127.453 50.6828 126.617 50.3364 125.988 49.6437C125.364 48.9464 125.052 48.019 125.052 46.8615V46.7794ZM126.713 46.923C126.713 47.6841 126.87 48.2811 127.185 48.714C127.499 49.1424 127.937 49.3566 128.497 49.3566C129.058 49.3566 129.493 49.1378 129.803 48.7003C130.117 48.2628 130.274 47.6225 130.274 46.7794C130.274 46.0321 130.113 45.4396 129.789 45.0021C129.47 44.5646 129.035 44.3459 128.483 44.3459C127.941 44.3459 127.51 44.5623 127.191 44.9953C126.872 45.4237 126.713 46.0662 126.713 46.923ZM137.206 44.6671C136.987 44.6307 136.762 44.6125 136.529 44.6125C135.768 44.6125 135.256 44.9041 134.991 45.4875V50.5461H133.33V43.1496H134.916L134.957 43.9767C135.358 43.3341 135.914 43.0128 136.625 43.0128C136.862 43.0128 137.058 43.0447 137.213 43.1086L137.206 44.6671ZM146.134 50.5461H144.479V42.5548L142.039 43.3888V41.9875L145.922 40.5587H146.134V50.5461Z" fill="#3A3A3A"/>
<rect x="34.5498" y="33.0653" width="26.9869" height="26.8855" rx="5" fill="#FBD3C8" fill-opacity="0.5"/>
<path d="M46.6309 46.8037C46.6309 47.8288 46.3981 48.6477 45.9325 49.2603C45.4669 49.8688 44.8421 50.1731 44.0579 50.1731C43.3309 50.1731 42.7489 49.9342 42.3119 49.4563V52.5991H40.8232V43.422H42.1955L42.2568 44.0959C42.6938 43.5649 43.288 43.2995 44.0395 43.2995C44.8482 43.2995 45.4812 43.6017 45.9387 44.2061C46.4002 44.8065 46.6309 45.6417 46.6309 46.7118V46.8037ZM45.1484 46.675C45.1484 46.0134 45.0156 45.4886 44.7502 45.1006C44.4888 44.7126 44.113 44.5186 43.6229 44.5186C43.0144 44.5186 42.5774 44.7698 42.3119 45.2721V48.2127C42.5815 48.7273 43.0226 48.9846 43.6352 48.9846C44.109 48.9846 44.4786 48.7947 44.744 48.4149C45.0136 48.031 45.1484 47.451 45.1484 46.675Z" fill="#EF4F23"/>
<path d="M55.1219 50.0506H53.5781V46.0869H49.5899V50.0506H48.04V41.1308H49.5899V44.8433H53.5781V41.1308H55.1219V50.0506Z" fill="#EF4F23"/>
<g filter="url(#filter1_d)">
<rect x="139.951" y="59.9512" width="141.597" height="51.0824" rx="3" fill="white"/>
</g>
<path d="M197.018 85.9075C197.018 87.0514 196.758 87.9651 196.238 88.6487C195.719 89.3278 195.021 89.6673 194.146 89.6673C193.335 89.6673 192.686 89.4007 192.198 88.8675V92.3743H190.537V82.1341H192.068L192.137 82.886C192.624 82.2936 193.287 81.9974 194.126 81.9974C195.028 81.9974 195.735 82.3346 196.245 83.0091C196.76 83.679 197.018 84.611 197.018 85.805V85.9075ZM195.363 85.764C195.363 85.0257 195.215 84.4401 194.919 84.0071C194.627 83.5742 194.208 83.3577 193.661 83.3577C192.982 83.3577 192.494 83.638 192.198 84.1985V87.4798C192.499 88.054 192.991 88.3411 193.675 88.3411C194.203 88.3411 194.616 88.1292 194.912 87.7054C195.213 87.277 195.363 86.6299 195.363 85.764ZM206.492 89.5306H204.77V85.1077H200.319V89.5306H198.59V79.5775H200.319V83.72H204.77V79.5775H206.492V89.5306ZM217.231 86.9671C217.231 86.5296 217.076 86.1924 216.767 85.9554C216.461 85.7184 215.908 85.4791 215.105 85.2376C214.303 84.9961 213.665 84.7272 213.191 84.431C212.285 83.8613 211.831 83.1185 211.831 82.2025C211.831 81.4004 212.157 80.7396 212.809 80.22C213.465 79.7005 214.315 79.4407 215.358 79.4407C216.051 79.4407 216.669 79.5683 217.211 79.8235C217.753 80.0788 218.179 80.4433 218.489 80.9173C218.799 81.3867 218.954 81.9085 218.954 82.4827H217.231C217.231 81.9632 217.067 81.5576 216.739 81.2659C216.416 80.9697 215.951 80.8216 215.345 80.8216C214.78 80.8216 214.34 80.9424 214.025 81.1839C213.715 81.4254 213.561 81.7627 213.561 82.1956C213.561 82.5602 213.729 82.8655 214.066 83.1116C214.404 83.3532 214.96 83.5901 215.734 83.8226C216.509 84.0504 217.131 84.3125 217.601 84.6087C218.07 84.9004 218.414 85.2376 218.633 85.6204C218.852 85.9987 218.961 86.443 218.961 86.9534C218.961 87.7829 218.642 88.4437 218.004 88.9359C217.37 89.4235 216.509 89.6673 215.42 89.6673C214.7 89.6673 214.037 89.5351 213.431 89.2708C212.829 89.0019 212.36 88.6328 212.022 88.1634C211.69 87.694 211.523 87.1471 211.523 86.5228H213.253C213.253 87.0879 213.44 87.5254 213.813 87.8353C214.187 88.1452 214.723 88.3001 215.42 88.3001C216.021 88.3001 216.473 88.1793 216.773 87.9378C217.079 87.6917 217.231 87.3681 217.231 86.9671ZM223.575 89.6673C222.522 89.6673 221.668 89.3369 221.012 88.6761C220.36 88.0107 220.034 87.1266 220.034 86.0237V85.8187C220.034 85.0804 220.175 84.4219 220.458 83.8431C220.745 83.2597 221.146 82.8063 221.661 82.4827C222.176 82.1592 222.75 81.9974 223.384 81.9974C224.391 81.9974 225.168 82.3187 225.715 82.9612C226.266 83.6038 226.542 84.513 226.542 85.6888V86.3587H221.709C221.759 86.9694 221.962 87.4525 222.317 87.8079C222.677 88.1634 223.129 88.3411 223.671 88.3411C224.432 88.3411 225.052 88.0335 225.53 87.4183L226.426 88.2728C226.13 88.7148 225.733 89.0589 225.236 89.305C224.744 89.5465 224.19 89.6673 223.575 89.6673ZM223.377 83.3304C222.921 83.3304 222.552 83.4899 222.27 83.8089C221.992 84.1279 221.814 84.5722 221.736 85.1419H224.901V85.0189C224.865 84.4629 224.717 84.0436 224.457 83.761C224.197 83.4739 223.837 83.3304 223.377 83.3304ZM229.379 82.1341L229.427 82.9886C229.974 82.3278 230.691 81.9974 231.58 81.9974C233.12 81.9974 233.904 82.8792 233.932 84.6429V89.5306H232.271V84.7386C232.271 84.2692 232.168 83.9228 231.963 83.6995C231.762 83.4717 231.432 83.3577 230.972 83.3577C230.302 83.3577 229.803 83.6608 229.475 84.2669V89.5306H227.813V82.1341H229.379ZM239.776 87.5208C239.776 87.2246 239.653 86.999 239.407 86.8441C239.166 86.6891 238.762 86.5524 238.197 86.4339C237.632 86.3154 237.16 86.165 236.782 85.9827C235.953 85.5817 235.538 85.0006 235.538 84.2396C235.538 83.6015 235.807 83.0683 236.345 82.64C236.882 82.2116 237.566 81.9974 238.396 81.9974C239.28 81.9974 239.993 82.2161 240.535 82.6536C241.082 83.0911 241.355 83.6585 241.355 84.3558H239.694C239.694 84.0368 239.576 83.7724 239.339 83.5628C239.102 83.3486 238.787 83.2415 238.396 83.2415C238.031 83.2415 237.732 83.3258 237.5 83.4944C237.272 83.6631 237.158 83.8887 237.158 84.1712C237.158 84.4264 237.265 84.6247 237.479 84.7659C237.694 84.9072 238.127 85.0508 238.778 85.1966C239.43 85.3379 239.94 85.5088 240.31 85.7093C240.683 85.9053 240.959 86.1422 241.137 86.4202C241.319 86.6982 241.41 87.0355 241.41 87.4319C241.41 88.0973 241.134 88.6373 240.583 89.0521C240.032 89.4622 239.309 89.6673 238.416 89.6673C237.81 89.6673 237.27 89.5579 236.796 89.3392C236.322 89.1204 235.953 88.8196 235.688 88.4368C235.424 88.054 235.292 87.6416 235.292 87.1995H236.905C236.928 87.5915 237.076 87.8945 237.35 88.1087C237.623 88.3183 237.985 88.4232 238.437 88.4232C238.874 88.4232 239.207 88.3411 239.435 88.1771C239.662 88.0084 239.776 87.7897 239.776 87.5208ZM242.552 85.764C242.552 85.0394 242.695 84.3877 242.982 83.8089C243.27 83.2256 243.673 82.779 244.192 82.4691C244.712 82.1546 245.309 81.9974 245.983 81.9974C246.981 81.9974 247.79 82.3187 248.41 82.9612C249.035 83.6038 249.372 84.456 249.422 85.5179L249.429 85.9075C249.429 86.6367 249.287 87.2884 249.005 87.8626C248.727 88.4368 248.326 88.8812 247.802 89.1956C247.282 89.5101 246.681 89.6673 245.997 89.6673C244.953 89.6673 244.117 89.3209 243.488 88.6282C242.864 87.931 242.552 87.0036 242.552 85.846V85.764ZM244.213 85.9075C244.213 86.6686 244.37 87.2656 244.685 87.6985C244.999 88.1269 245.437 88.3411 245.997 88.3411C246.558 88.3411 246.993 88.1224 247.303 87.6849C247.617 87.2474 247.774 86.6071 247.774 85.764C247.774 85.0166 247.613 84.4241 247.289 83.9866C246.97 83.5491 246.535 83.3304 245.983 83.3304C245.441 83.3304 245.01 83.5469 244.691 83.9798C244.372 84.4082 244.213 85.0508 244.213 85.9075ZM254.706 83.6517C254.487 83.6152 254.262 83.597 254.029 83.597C253.268 83.597 252.756 83.8887 252.491 84.472V89.5306H250.83V82.1341H252.416L252.457 82.9612C252.858 82.3187 253.414 81.9974 254.125 81.9974C254.362 81.9974 254.558 82.0293 254.713 82.0931L254.706 83.6517ZM265.828 89.5306H259.136V88.389L262.451 84.7728C262.93 84.2396 263.269 83.7952 263.47 83.4398C263.675 83.0797 263.777 82.7197 263.777 82.3597C263.777 81.8857 263.643 81.5029 263.374 81.2112C263.11 80.9196 262.752 80.7737 262.301 80.7737C261.763 80.7737 261.346 80.9378 261.05 81.2659C260.754 81.5941 260.605 82.0429 260.605 82.6126H258.944C258.944 82.0065 259.081 81.4619 259.354 80.9788C259.632 80.4912 260.027 80.1129 260.537 79.8441C261.052 79.5752 261.645 79.4407 262.314 79.4407C263.281 79.4407 264.042 79.6845 264.598 80.1722C265.158 80.6553 265.438 81.3252 265.438 82.1819C265.438 82.6787 265.297 83.2005 265.015 83.7474C264.737 84.2897 264.279 84.9072 263.641 85.5999L261.207 88.2044H265.828V89.5306Z" fill="#3A3A3A"/>
<rect x="152.05" y="72.0495" width="26.9869" height="26.8855" rx="5" fill="#CDEDFE"/>
<path d="M164.13 85.7882C164.13 86.8134 163.897 87.6322 163.432 88.2449C162.966 88.8534 162.341 89.1577 161.557 89.1577C160.83 89.1577 160.248 88.9188 159.811 88.4409V91.5837H158.322V82.4065H159.695L159.756 83.0804C160.193 82.5495 160.787 82.284 161.539 82.284C162.347 82.284 162.98 82.5862 163.438 83.1907C163.899 83.7911 164.13 84.6263 164.13 85.6963V85.7882ZM162.647 85.6596C162.647 84.9979 162.515 84.4731 162.249 84.0851C161.988 83.6971 161.612 83.5031 161.122 83.5031C160.513 83.5031 160.076 83.7543 159.811 84.2567V87.1973C160.081 87.7119 160.522 87.9692 161.134 87.9692C161.608 87.9692 161.978 87.7793 162.243 87.3994C162.513 87.0155 162.647 86.4356 162.647 85.6596Z" fill="#018CD5"/>
<path d="M172.621 89.0351H171.077V85.0715H167.089V89.0351H165.539V80.1153H167.089V83.8278H171.077V80.1153H172.621V89.0351Z" fill="#018CD5"/>
<defs>
<filter id="filter0_d" x="0.451172" y="0.966797" width="171.597" height="81.0824" filterUnits="userSpaceOnUse" color-interpolation-filters="sRGB">
<feFlood flood-opacity="0" result="BackgroundImageFix"/>
<feColorMatrix in="SourceAlpha" type="matrix" values="0 0 0 0 0 0 0 0 0 0 0 0 0 0 0 0 0 0 127 0"/>
<feMorphology radius="3" operator="dilate" in="SourceAlpha" result="effect1_dropShadow"/>
<feOffset dx="-7" dy="-5"/>
<feGaussianBlur stdDeviation="6"/>
<feColorMatrix type="matrix" values="0 0 0 0 0 0 0 0 0 0 0 0 0 0 0 0 0 0 0.05 0"/>
<feBlend mode="normal" in2="BackgroundImageFix" result="effect1_dropShadow"/>
<feBlend mode="normal" in="SourceGraphic" in2="effect1_dropShadow" result="shape"/>
</filter>
<filter id="filter1_d" x="117.951" y="39.9512" width="171.597" height="81.0824" filterUnits="userSpaceOnUse" color-interpolation-filters="sRGB">
<feFlood flood-opacity="0" result="BackgroundImageFix"/>
<feColorMatrix in="SourceAlpha" type="matrix" values="0 0 0 0 0 0 0 0 0 0 0 0 0 0 0 0 0 0 127 0"/>
<feMorphology radius="3" operator="dilate" in="SourceAlpha" result="effect1_dropShadow"/>
<feOffset dx="-7" dy="-5"/>
<feGaussianBlur stdDeviation="6"/>
<feColorMatrix type="matrix" values="0 0 0 0 0 0 0 0 0 0 0 0 0 0 0 0 0 0 0.05 0"/>
<feBlend mode="normal" in2="BackgroundImageFix" result="effect1_dropShadow"/>
<feBlend mode="normal" in="SourceGraphic" in2="effect1_dropShadow" result="shape"/>
</filter>
</defs>
</svg>
